<svg version="1.1" id="Layer_1" xmlns="http://www.w3.org/2000/svg" xmlns:xlink="http://www.w3.org/1999/xlink" x="0px" y="0px"
	 width="100%" viewBox="0 0 500 500" enable-background="new 0 0 500 500" xml:space="preserve">
<path fill="#000000" opacity="1.000000" stroke="none" 
	d="
M334.000000,501.000000 
	C222.666687,501.000000 111.833389,501.000000 1.000059,501.000000 
	C1.000040,334.333405 1.000040,167.666794 1.000020,1.000149 
	C167.666565,1.000099 334.333130,1.000099 500.999756,1.000050 
	C500.999847,167.666519 500.999847,334.333038 500.999939,500.999786 
	C445.500000,501.000000 390.000000,501.000000 334.000000,501.000000 
M183.938156,170.065231 
	C183.938156,170.065231 183.793762,170.063858 183.995560,170.601318 
	C184.310120,170.799835 184.624695,170.998337 184.975296,171.910095 
	C199.886917,194.758118 197.794022,217.631241 184.812698,240.438156 
	C186.122192,240.907547 187.192902,241.654648 188.217850,241.596405 
	C192.855515,241.332825 199.327011,242.611145 201.747269,240.085205 
	C207.868759,233.696411 211.180573,225.167816 211.990128,215.137573 
	C211.989380,207.899567 212.423798,200.624664 211.814758,193.438217 
	C211.481873,189.510208 209.383621,185.731827 208.052673,181.967041 
	C208.052673,181.967041 208.125565,181.921310 208.017563,181.176956 
	C207.020935,179.753998 206.024307,178.331024 204.990906,176.275955 
	C204.946960,175.857254 204.903000,175.438568 204.854218,174.319489 
	C202.916748,172.187164 200.979279,170.054840 199.014618,167.986145 
	C199.014618,167.986145 199.078323,167.959106 199.009354,167.248947 
	C195.981873,164.338867 193.294601,160.921982 189.860886,158.617081 
	C180.834442,152.558014 170.848343,148.502457 159.883957,148.075256 
	C149.107590,147.655396 138.287552,147.662308 127.514282,148.124832 
	C121.299370,148.391678 115.139091,149.931091 108.212112,150.987228 
	C107.469688,151.047241 106.727272,151.107254 105.067375,151.023636 
	C100.718025,151.065247 96.368675,151.106842 91.190781,151.318817 
	C85.478119,151.699158 79.765457,152.079514 74.052795,152.459854 
	C85.703468,156.414337 87.646652,165.594299 87.989418,175.832352 
	C88.220703,182.740738 88.877083,189.639786 88.954498,196.547379 
	C89.105270,210.000443 89.268394,223.466751 88.788391,236.904785 
	C88.655830,240.615814 90.101372,241.661636 92.800827,241.903091 
	C96.426781,242.227448 100.144966,242.306427 103.733788,241.823578 
	C104.949455,241.660004 106.726929,239.511108 106.792084,238.197311 
	C106.943092,235.152222 106.206070,232.063080 105.991951,228.067490 
	C105.936325,206.050705 105.880692,184.033905 105.953018,161.266434 
	C105.909210,160.509628 105.865402,159.752838 105.967484,158.358109 
	C106.014114,157.925003 106.060745,157.491898 106.040115,157.033035 
	C106.040115,157.033035 106.055000,157.103500 106.841553,157.025986 
	C109.715454,156.013504 112.533058,154.361862 115.473320,154.102859 
	C126.285820,153.150436 137.132965,152.363831 147.979889,152.142731 
	C152.266266,152.055359 156.776093,153.081116 160.851303,154.533798 
	C169.331223,157.556641 176.703705,162.526108 182.915939,169.067505 
	C182.915939,169.067505 182.841141,169.052124 182.996628,169.600830 
	C183.308563,169.803741 183.620514,170.006638 183.938156,170.065231 
M204.008270,258.776428 
	C204.386276,260.093872 204.764282,261.411316 205.142273,262.728760 
	C207.266403,260.106171 207.539505,258.203094 203.980927,257.215790 
	C202.868546,251.867157 198.381180,253.587265 195.058777,253.065781 
	C192.218414,252.619965 190.741516,254.002472 191.048218,257.929138 
	C191.048218,263.112152 191.048218,268.295166 191.048218,273.478149 
	C192.581833,272.903992 193.736649,271.888367 193.791000,270.816895 
	C194.024307,266.216797 193.933945,261.600250 194.617325,256.791504 
	C197.748505,257.190674 200.879669,257.589844 204.008270,258.776428 
M356.226471,253.352722 
	C355.654175,260.134735 355.081879,266.916748 354.509583,273.698792 
	C355.087341,273.974823 355.665100,274.250854 356.242828,274.526855 
	C357.092316,273.671356 357.941803,272.815857 358.948425,271.211151 
	C359.959229,269.766479 360.970032,268.321808 362.691437,267.209167 
	C366.277954,269.499115 368.804871,267.348480 371.001373,264.957031 
	C373.423187,262.320190 372.748352,259.416290 370.929382,256.674591 
	C368.102661,252.414047 363.745636,254.320358 359.315155,253.810287 
	C358.546722,253.593750 357.778320,253.377197 356.226471,253.352722 
M247.689575,280.347809 
	C247.456711,281.247650 247.021912,282.147186 247.020447,283.047424 
	C246.982803,306.004242 246.978546,328.961151 247.032654,351.917908 
	C247.034882,352.866394 247.658371,353.813416 248.281738,355.628235 
	C248.331009,357.448090 248.380264,359.267944 247.679459,361.516327 
	C247.355240,368.145752 247.031021,374.775177 246.706787,381.404602 
	C247.272614,381.543060 247.838440,381.681549 248.404266,381.820007 
	C248.924606,380.867615 249.444931,379.915222 250.035019,378.032471 
	C250.004959,349.051788 249.974899,320.071136 250.007111,290.188751 
	C249.393387,287.111969 248.779663,284.035187 247.689575,280.347809 
M161.206238,271.666565 
	C164.306488,274.831635 170.193436,274.982239 174.345657,271.663483 
	C174.228470,271.124359 174.111282,270.585266 174.309464,269.360138 
	C176.881287,263.801483 176.572556,255.878159 173.097748,253.419006 
	C173.097748,257.587677 173.412872,261.377594 172.969788,265.076691 
	C172.735031,267.036713 171.628021,269.428864 170.117203,270.569031 
	C168.045746,272.132294 165.198242,272.865723 162.928406,269.164917 
	C162.277451,264.005798 161.626495,258.846710 160.975540,253.687592 
	C160.329376,253.756805 159.683197,253.826004 159.037033,253.895218 
	C159.037033,258.957947 158.967041,264.022888 159.125870,269.080658 
	C159.145660,269.710358 160.378204,270.302002 161.206238,271.666565 
M268.969757,266.943359 
	C268.969757,269.201477 268.969757,271.459595 268.969757,273.717712 
	C269.667999,273.977600 270.366241,274.237457 271.064514,274.497314 
	C272.057007,271.031891 272.727081,267.416229 274.149414,263.378021 
	C275.582001,261.243042 277.163239,259.188171 278.377625,256.935577 
	C278.899994,255.966644 278.661713,254.587631 278.769012,253.394897 
	C277.552277,254.154556 275.976166,254.652679 275.193420,255.728180 
	C273.549316,257.987305 272.321960,260.549713 270.931519,262.973724 
	C266.784424,260.121338 267.059143,253.786057 260.052338,253.071075 
	C263.367676,257.980774 266.096497,262.021912 268.969757,266.943359 
M328.700531,270.167023 
	C328.464966,265.905365 328.160950,261.645966 328.020416,257.381165 
	C327.940125,254.945145 328.104858,252.518356 323.171997,253.357635 
	C323.527771,258.406891 323.438660,263.592621 324.378296,268.584747 
	C325.241241,273.169342 328.573120,274.241089 337.738708,273.753143 
	C341.991608,269.555298 342.584503,256.045288 337.994110,252.748856 
	C337.994110,256.241119 337.858887,259.309662 338.019684,262.362640 
	C338.484039,271.178131 336.461853,271.477448 328.700531,270.167023 
M251.027084,204.945099 
	C251.003098,194.991455 250.979111,185.037811 250.971680,174.136505 
	C250.999802,161.564407 251.175705,148.989212 250.913071,136.423187 
	C250.868393,134.285461 248.943268,132.187057 247.138290,130.492722 
	C247.087555,166.364441 247.030960,202.236145 247.018982,238.107880 
	C247.018677,239.027451 247.507980,239.947189 248.491577,241.028091 
	C249.216049,240.563477 250.547699,240.128098 250.571686,239.629761 
	C250.829971,234.266357 250.940506,228.893417 250.974869,223.522324 
	C251.012527,217.633804 250.927826,211.744492 251.027084,204.945099 
M107.406944,338.990112 
	C111.413460,338.591797 116.020470,340.358215 119.511047,335.401459 
	C111.123192,334.103912 109.113571,327.511108 108.268280,321.341278 
	C107.041061,312.383728 107.384193,303.215088 106.968704,294.140533 
	C106.770149,289.804016 106.367111,285.476898 106.074799,281.398163 
	C101.098984,280.878021 96.864700,280.156647 92.632545,280.168884 
	C91.418785,280.172394 89.232338,282.234711 89.155403,283.457672 
	C88.533127,293.349884 88.416229,303.272400 87.930588,313.175110 
	C87.436874,323.242401 86.164413,332.973602 73.700584,336.365692 
	C76.889870,337.676147 79.915756,338.804657 82.977654,338.912689 
	C90.787529,339.188232 98.613480,339.008453 107.406944,338.990112 
M396.970337,197.261826 
	C396.770294,196.858566 396.673737,196.234467 396.354767,196.084961 
	C391.021820,193.585724 390.613190,198.808136 389.282593,201.242264 
	C382.913971,212.892624 376.979706,224.781387 370.964447,236.622696 
	C370.227051,238.074310 369.930084,239.749664 369.428986,241.321350 
	C369.901398,241.618652 370.373810,241.915970 370.846252,242.213287 
	C372.135590,240.945358 373.750671,239.873352 374.653381,238.372818 
	C377.382568,233.836182 379.874023,229.154083 382.387573,224.490646 
	C387.171875,215.614258 391.907288,206.711502 396.970337,197.261826 
M311.015961,260.700745 
	C308.043427,253.821640 302.034912,252.297485 297.707520,253.273651 
	C293.123413,254.307709 289.389252,256.233978 289.848969,264.852112 
	C290.071991,269.033295 291.754364,272.106201 295.133545,273.307037 
	C299.417023,274.829254 304.419586,275.342590 308.177643,271.929047 
	C311.069489,269.302338 312.458893,265.613678 311.015961,260.700745 
M413.309479,254.036011 
	C412.552063,254.801132 411.163696,255.545807 411.138123,256.334625 
	C410.951050,262.107086 411.037231,267.888397 411.037231,273.187500 
	C416.497009,273.187500 421.463867,273.187500 426.430756,273.187500 
	C423.880890,272.013733 421.270935,272.478821 418.958099,271.850403 
	C417.413361,271.430695 416.291321,269.454987 414.980133,268.175629 
	C416.292328,267.442352 417.533722,266.500183 418.933655,266.025879 
	C420.916290,265.354187 423.015778,265.027588 425.065338,264.553497 
	C424.940704,263.992920 424.816071,263.432343 424.691437,262.871765 
	C421.496674,262.871765 418.301941,262.871765 415.224640,262.871765 
	C415.224640,260.320465 415.224640,258.374298 415.224640,255.823792 
	C419.230560,255.823792 423.051514,255.823792 426.872467,255.823792 
	C426.879730,255.357727 426.887024,254.891663 426.894287,254.425598 
	C422.809998,252.731079 418.584259,252.458557 413.309479,254.036011 
M223.977097,253.007584 
	C222.851257,253.948090 220.889709,254.773758 220.742020,255.848633 
	C220.045044,260.921234 219.731033,266.058655 219.578766,271.181854 
	C219.553299,272.038513 220.960510,273.657349 221.770599,273.700317 
	C226.387589,273.945160 231.024231,273.819092 235.654205,273.819092 
	C235.640503,273.217468 235.626785,272.615814 235.613083,272.014191 
	C233.132065,272.014191 230.651047,272.019226 228.170044,272.012756 
	C225.648300,272.006195 222.985123,272.329987 222.993973,268.467163 
	C223.001923,265.004059 225.284760,265.012390 227.742371,264.960876 
	C229.247177,264.929352 230.746857,264.652771 232.248840,264.486206 
	C232.274796,263.975952 232.300735,263.465698 232.326691,262.955444 
	C230.735794,262.629913 229.078445,262.485229 227.571472,261.931366 
	C225.832993,261.292389 224.227219,260.292419 222.563797,259.449158 
	C224.334503,258.634186 226.037521,257.564819 227.893661,257.070984 
	C230.037949,256.500519 232.317169,256.437195 234.537796,256.153625 
	C234.512939,255.309387 234.488068,254.465134 234.463196,253.620895 
	C231.253738,253.414597 228.044266,253.208313 223.977097,253.007584 
M30.851000,267.501831 
	C35.687855,264.673065 37.680691,260.184540 35.489628,257.054077 
	C33.452141,254.143051 23.073412,251.596848 20.800690,253.647751 
	C19.928202,254.435089 19.344364,255.950409 19.290712,257.163269 
	C19.102398,261.420502 19.052704,265.698517 19.282377,269.950684 
	C19.352104,271.241638 20.495277,272.474640 21.146795,273.734161 
	C21.559923,273.553558 21.973053,273.372986 22.386183,273.192383 
	C22.805132,271.650909 23.224083,270.109406 23.568119,268.843567 
	C25.991293,268.438354 28.066919,268.091278 30.851000,267.501831 
M81.793976,272.010437 
	C80.937973,270.721802 80.081978,269.433197 79.225983,268.144562 
	C80.638062,267.236206 81.959785,266.108093 83.487144,265.480133 
	C85.075142,264.827240 86.861877,264.657745 88.561714,264.276886 
	C88.480652,263.698059 88.399590,263.119232 88.318527,262.540436 
	C86.413124,262.352356 84.428185,262.431793 82.626183,261.896027 
	C81.035767,261.423126 79.649429,260.263855 78.172981,259.407684 
	C79.727921,258.612671 81.208076,257.552826 82.856094,257.087463 
	C85.079773,256.459564 87.432602,256.289062 89.730011,255.922272 
	C89.673965,255.134491 89.617912,254.346725 89.561859,253.558945 
	C86.267021,253.369400 82.934875,252.824280 79.695572,253.164108 
	C78.386375,253.301422 76.538025,255.212082 76.239143,256.597168 
	C75.656067,259.299316 75.817329,262.210693 75.995461,265.014801 
	C76.173805,267.822235 76.122803,272.665283 77.267052,273.012939 
	C80.757301,274.073395 84.775017,273.397766 88.587456,273.397766 
	C88.560471,272.949738 88.533485,272.501678 88.506493,272.053650 
	C86.549622,272.053650 84.592751,272.053650 81.793976,272.010437 
M395.446838,256.995453 
	C396.468658,256.922577 397.490479,256.849701 398.512299,256.776825 
	C398.592560,256.231140 398.672821,255.685471 398.753082,255.139801 
	C395.641632,254.508072 392.363525,252.983887 389.470917,253.524063 
	C387.112396,253.964508 384.504730,256.547852 383.451904,258.843445 
	C383.012177,259.802246 386.065186,262.801392 387.992645,264.262909 
	C389.426666,265.350281 391.687134,265.276184 393.420593,266.067535 
	C394.429718,266.528229 395.125519,267.675201 395.962311,268.513367 
	C395.117462,269.335052 394.266174,270.853302 393.428955,270.845612 
	C391.075745,270.823975 388.731659,270.152893 386.377075,269.781494 
	C385.362976,269.621552 384.331879,269.569183 383.308502,269.467926 
	C383.788300,270.465027 384.131104,272.219238 384.770355,272.334900 
	C388.593048,273.026642 392.705261,274.252411 396.257172,273.390350 
	C397.987793,272.970337 398.715363,268.417328 400.027496,265.438904 
	C396.753326,264.357605 394.694397,263.859894 392.799896,262.999847 
	C390.968781,262.168579 389.233917,261.058960 387.642670,259.830750 
	C387.375732,259.624695 387.927887,257.515747 388.315033,257.444397 
	C390.391022,257.061859 392.534576,257.046051 395.446838,256.995453 
M452.918915,273.931549 
	C453.000610,273.382446 453.082336,272.833313 453.164032,272.284210 
	C451.511658,272.199982 449.857697,272.023041 448.207214,272.050690 
	C444.699524,272.109344 442.607147,271.065887 442.948242,266.945740 
	C443.249420,263.307861 442.842041,259.615753 443.042358,255.963760 
	C443.228271,252.573441 441.540375,252.710831 439.299225,253.171753 
	C439.299225,260.277588 439.299225,267.019318 439.299225,273.985779 
	C443.734039,273.985779 447.872681,273.985779 452.918915,273.931549 
M116.748825,267.026276 
	C113.735687,266.477570 110.722557,265.928833 107.967026,265.427032 
	C107.967026,262.779602 107.967026,260.457184 107.967026,258.134766 
	C107.513939,258.076324 107.060852,258.017914 106.607758,257.959473 
	C104.510368,263.078033 102.412971,268.196625 100.315575,273.315186 
	C100.718735,273.564423 101.121895,273.813660 101.525055,274.062897 
	C102.291138,273.651367 103.609222,273.363953 103.734169,272.808258 
	C104.576508,269.061859 107.371338,269.002014 110.278984,269.041016 
	C112.256508,269.067505 114.243423,269.251190 116.203209,269.088440 
	C116.644753,269.051758 116.990929,267.866547 116.748825,267.026276 
M59.460068,273.862488 
	C60.811142,273.656647 62.162220,273.450775 63.513294,273.244934 
	C62.831558,272.104279 62.027630,271.533417 61.255524,271.573608 
	C51.987854,272.056213 51.985538,272.079865 51.993179,262.906219 
	C51.994976,260.753540 52.134575,258.594513 52.005775,256.450775 
	C51.939545,255.348541 51.421772,254.273453 51.108051,253.186096 
	C50.601521,253.249557 50.094994,253.313019 49.588463,253.376495 
	C49.588463,259.329865 49.428131,265.291992 49.751125,271.227783 
	C49.803097,272.182953 51.897636,273.447968 53.249931,273.805145 
	C54.953392,274.255157 56.864468,273.919159 59.460068,273.862488 
M140.999939,266.546448 
	C144.204681,271.990417 139.523315,271.756958 135.408707,272.555542 
	C140.026596,274.602173 143.376511,274.266235 145.471771,270.917664 
	C147.387161,267.856537 145.385086,264.944733 140.941422,263.117371 
	C138.151978,261.970276 135.439697,260.635498 131.925491,259.035583 
	C132.425110,260.698120 132.419052,262.871948 133.415512,263.531769 
	C135.417770,264.857574 137.966934,265.357452 140.999939,266.546448 
M468.746643,257.319672 
	C467.990509,256.613770 467.234375,255.907867 466.478302,255.201965 
	C466.000031,256.016968 465.126434,256.822906 465.107544,257.648407 
	C464.983337,263.074371 465.043518,268.504547 465.043518,273.933350 
	C465.616882,274.016785 466.190277,274.100189 466.763641,274.183624 
	C469.964417,269.384583 468.790894,263.636444 468.746643,257.319672 
M358.076996,338.995117 
	C359.496246,338.921600 360.915497,338.848053 362.334717,338.774536 
	C354.528992,337.982208 346.732605,338.127777 338.948578,337.882050 
	C336.949646,337.818939 335.003754,336.479614 333.004242,335.814514 
	C332.288361,335.576385 331.426880,335.384796 330.743958,335.574890 
	C330.282135,335.703430 329.606567,336.815613 329.735229,337.004120 
	C330.234467,337.735535 330.925903,338.561859 331.717010,338.812622 
	C332.791351,339.153137 334.022736,339.048096 335.186737,339.047394 
	C342.519104,339.043121 349.851501,339.014771 358.076996,338.995117 
M140.240723,253.038284 
	C137.979553,253.456558 135.718384,253.874847 133.457199,254.293137 
	C133.511978,254.934540 133.566742,255.575943 133.621506,256.217346 
	C137.402557,256.405182 141.183624,256.592987 144.964676,256.780823 
	C145.113663,256.293823 145.262650,255.806793 145.411621,255.319778 
	C143.953079,254.573044 142.494537,253.826309 140.240723,253.038284 
M196.405441,265.858856 
	C195.994766,265.814423 195.584091,265.769958 195.173416,265.725494 
	C195.151169,266.006378 195.128922,266.287231 195.106689,266.568115 
	C195.525406,266.478180 195.944122,266.388214 196.405441,265.858856 
z"/>
<path fill="#D291B9" opacity="1.000000" stroke="none" 
	d="
M105.829071,228.991806 
	C106.206070,232.063080 106.943092,235.152222 106.792084,238.197311 
	C106.726929,239.511108 104.949455,241.660004 103.733788,241.823578 
	C100.144966,242.306427 96.426781,242.227448 92.800827,241.903091 
	C90.101372,241.661636 88.655830,240.615814 88.788391,236.904785 
	C89.268394,223.466751 89.105270,210.000443 88.954498,196.547379 
	C88.877083,189.639786 88.220703,182.740738 87.989418,175.832352 
	C87.646652,165.594299 85.703468,156.414337 74.052795,152.459854 
	C79.765457,152.079514 85.478119,151.699158 91.958031,151.435120 
	C97.145134,151.423386 101.564995,151.295319 105.984848,151.167252 
	C106.727272,151.107254 107.469688,151.047241 108.828049,151.157974 
	C110.357193,151.821579 111.270393,152.314438 111.830460,152.616699 
	C109.809196,154.186966 107.932098,155.645233 106.055000,157.103500 
	C106.055000,157.103500 106.040115,157.033035 105.822357,157.094452 
	C105.676941,157.769257 105.749268,158.382645 105.821602,158.996033 
	C105.865402,159.752838 105.909210,160.509628 105.691864,162.001816 
	C105.289314,163.552277 105.025452,164.367188 105.024429,165.182434 
	C104.999336,185.171021 104.986893,205.159637 105.035522,225.148117 
	C105.038643,226.429993 105.552696,227.710602 105.829071,228.991806 
z"/>
<path fill="#D191B8" opacity="1.000000" stroke="none" 
	d="
M211.849319,215.994446 
	C211.180573,225.167816 207.868759,233.696411 201.747269,240.085205 
	C199.327011,242.611145 192.855515,241.332825 188.217850,241.596405 
	C187.192902,241.654648 186.122192,240.907547 184.812698,240.438156 
	C197.794022,217.631241 199.886917,194.758118 184.803986,171.330200 
	C184.353043,170.521484 184.073395,170.292679 183.793762,170.063858 
	C183.793762,170.063858 183.938156,170.065231 183.789642,169.911011 
	C183.374451,169.521912 183.107803,169.287018 182.841141,169.052124 
	C182.841141,169.052124 182.915939,169.067505 182.911652,168.734207 
	C181.270615,162.466248 176.100723,160.054276 171.425415,157.424576 
	C166.854767,154.853729 161.882217,152.997437 157.086090,150.827484 
	C159.041077,150.083435 161.115967,149.597351 162.847961,150.162369 
	C174.030258,153.810287 186.030685,155.812469 194.306015,165.544220 
	C195.370819,166.796432 197.462402,167.175537 199.078323,167.959106 
	C199.078323,167.959106 199.014618,167.986145 199.039230,168.321442 
	C200.995575,170.777771 202.927307,172.898819 204.859039,175.019867 
	C204.903000,175.438568 204.946960,175.857254 205.009277,176.975830 
	C206.060287,179.090912 207.092926,180.506119 208.125565,181.921310 
	C208.125565,181.921310 208.052673,181.967041 208.046753,182.364044 
	C209.157578,193.546204 210.271378,204.331665 211.406372,215.114883 
	C211.438507,215.420227 211.696594,215.701782 211.849319,215.994446 
z"/>
<path fill="#D193B9" opacity="1.000000" stroke="none" 
	d="
M106.919968,339.000488 
	C98.613480,339.008453 90.787529,339.188232 82.977654,338.912689 
	C79.915756,338.804657 76.889870,337.676147 73.700584,336.365692 
	C86.164413,332.973602 87.436874,323.242401 87.930588,313.175110 
	C88.416229,303.272400 88.533127,293.349884 89.155403,283.457672 
	C89.232338,282.234711 91.418785,280.172394 92.632545,280.168884 
	C96.864700,280.156647 101.098984,280.878021 106.074799,281.398163 
	C106.367111,285.476898 106.770149,289.804016 106.968704,294.140533 
	C107.384193,303.215088 107.041061,312.383728 108.268280,321.341278 
	C109.113571,327.511108 111.123192,334.103912 119.511047,335.401459 
	C116.020470,340.358215 111.413460,338.591797 106.919968,339.000488 
z"/>
<path fill="#CF9ABC" opacity="1.000000" stroke="none" 
	d="
M199.043839,167.604019 
	C197.462402,167.175537 195.370819,166.796432 194.306015,165.544220 
	C186.030685,155.812469 174.030258,153.810287 162.847961,150.162369 
	C161.115967,149.597351 159.041077,150.083435 157.086090,150.827484 
	C161.882217,152.997437 166.854767,154.853729 171.425415,157.424576 
	C176.100723,160.054276 181.270615,162.466248 182.901459,168.770996 
	C176.703705,162.526108 169.331223,157.556641 160.851303,154.533798 
	C156.776093,153.081116 152.266266,152.055359 147.979889,152.142731 
	C137.132965,152.363831 126.285820,153.150436 115.473320,154.102859 
	C112.533058,154.361862 109.715454,156.013504 106.448273,157.064743 
	C107.932098,155.645233 109.809196,154.186966 111.830460,152.616699 
	C111.270393,152.314438 110.357193,151.821579 109.199104,151.113220 
	C115.139091,149.931091 121.299370,148.391678 127.514282,148.124832 
	C138.287552,147.662308 149.107590,147.655396 159.883957,148.075256 
	C170.848343,148.502457 180.834442,152.558014 189.860886,158.617081 
	C193.294601,160.921982 195.981873,164.338867 199.043839,167.604019 
z"/>
<path fill="#111011" opacity="1.000000" stroke="none" 
	d="
M396.816650,197.540756 
	C391.907288,206.711502 387.171875,215.614258 382.387573,224.490646 
	C379.874023,229.154083 377.382568,233.836182 374.653381,238.372818 
	C373.750671,239.873352 372.135590,240.945358 370.846252,242.213287 
	C370.373810,241.915970 369.901398,241.618652 369.428986,241.321350 
	C369.930084,239.749664 370.227051,238.074310 370.964447,236.622696 
	C376.979706,224.781387 382.913971,212.892624 389.282593,201.242264 
	C390.613190,198.808136 391.021820,193.585724 396.354767,196.084961 
	C396.673737,196.234467 396.770294,196.858566 396.816650,197.540756 
z"/>
<path fill="#C38EA6" opacity="1.000000" stroke="none" 
	d="
M311.020752,261.092102 
	C312.458893,265.613678 311.069489,269.302338 308.177643,271.929047 
	C304.419586,275.342590 299.417023,274.829254 295.133545,273.307037 
	C291.754364,272.106201 290.071991,269.033295 289.848969,264.852112 
	C289.389252,256.233978 293.123413,254.307709 297.707520,253.273651 
	C302.034912,252.297485 308.043427,253.821640 311.020752,261.092102 
M297.641815,257.056702 
	C293.090240,259.546143 291.828644,263.043732 293.905212,267.415894 
	C295.414429,270.593567 300.059692,272.236481 303.489685,270.805695 
	C306.287567,269.638580 308.684174,264.551392 307.818451,261.617157 
	C306.737396,257.953094 302.549591,255.901688 297.641815,257.056702 
z"/>
<path fill="#1E1D1E" opacity="1.000000" stroke="none" 
	d="
M247.886887,130.070480 
	C248.943268,132.187057 250.868393,134.285461 250.913071,136.423187 
	C251.175705,148.989212 250.999802,161.564407 250.616547,174.850708 
	C250.098190,184.035522 249.934998,192.506119 249.505402,200.980255 
	C248.883789,200.985626 248.528580,200.987473 248.107315,200.525452 
	C247.989807,176.731232 247.938339,153.400848 247.886887,130.070480 
z"/>
<path fill="#C38EA6" opacity="1.000000" stroke="none" 
	d="
M413.746155,253.994141 
	C418.584259,252.458557 422.809998,252.731079 426.894287,254.425598 
	C426.887024,254.891663 426.879730,255.357727 426.872467,255.823792 
	C423.051514,255.823792 419.230560,255.823792 415.224640,255.823792 
	C415.224640,258.374298 415.224640,260.320465 415.224640,262.871765 
	C418.301941,262.871765 421.496674,262.871765 424.691437,262.871765 
	C424.816071,263.432343 424.940704,263.992920 425.065338,264.553497 
	C423.015778,265.027588 420.916290,265.354187 418.933655,266.025879 
	C417.533722,266.500183 416.292328,267.442352 414.980133,268.175629 
	C416.291321,269.454987 417.413361,271.430695 418.958099,271.850403 
	C421.270935,272.478821 423.880890,272.013733 426.430756,273.187500 
	C421.463867,273.187500 416.497009,273.187500 411.037231,273.187500 
	C411.037231,267.888397 410.951050,262.107086 411.138123,256.334625 
	C411.163696,255.545807 412.552063,254.801132 413.746155,253.994141 
z"/>
<path fill="#111011" opacity="1.000000" stroke="none" 
	d="
M224.405945,253.004807 
	C228.044266,253.208313 231.253738,253.414597 234.463196,253.620895 
	C234.488068,254.465134 234.512939,255.309387 234.537796,256.153625 
	C232.317169,256.437195 230.037949,256.500519 227.893661,257.070984 
	C226.037521,257.564819 224.334503,258.634186 222.563812,259.449158 
	C224.227219,260.292419 225.832993,261.292389 227.571472,261.931366 
	C229.078445,262.485229 230.735794,262.629913 232.326691,262.955444 
	C232.300735,263.465698 232.274796,263.975952 232.248840,264.486206 
	C230.746857,264.652771 229.247177,264.929352 227.742371,264.960876 
	C225.284760,265.012390 223.001923,265.004059 222.993973,268.467163 
	C222.985123,272.329987 225.648300,272.006195 228.170044,272.012756 
	C230.651047,272.019226 233.132065,272.014191 235.613083,272.014191 
	C235.626785,272.615814 235.640503,273.217468 235.654205,273.819092 
	C231.024231,273.819092 226.387589,273.945160 221.770599,273.700317 
	C220.960510,273.657349 219.553299,272.038513 219.578766,271.181854 
	C219.731033,266.058655 220.045044,260.921234 220.742020,255.848633 
	C220.889709,254.773758 222.851257,253.948090 224.405945,253.004807 
z"/>
<path fill="#141414" opacity="1.000000" stroke="none" 
	d="
M30.496773,267.623016 
	C28.066919,268.091278 25.991293,268.438354 23.568119,268.843567 
	C23.224083,270.109406 22.805132,271.650909 22.386183,273.192383 
	C21.973053,273.372986 21.559923,273.553558 21.146795,273.734161 
	C20.495277,272.474640 19.352104,271.241638 19.282377,269.950684 
	C19.052704,265.698517 19.102398,261.420502 19.290712,257.163269 
	C19.344364,255.950409 19.928202,254.435089 20.800690,253.647751 
	C23.073412,251.596848 33.452141,254.143051 35.489628,257.054077 
	C37.680691,260.184540 35.687855,264.673065 30.496773,267.623016 
M24.843170,256.394257 
	C24.045801,259.129089 23.248430,261.863922 22.280218,265.184723 
	C24.946346,265.044617 26.316572,265.361389 27.204952,264.846619 
	C29.176062,263.704498 30.905497,262.145233 32.733471,260.756073 
	C31.018276,259.296631 29.348011,257.777893 27.556250,256.419434 
	C27.108669,256.080109 26.269592,256.257202 24.843170,256.394257 
z"/>
<path fill="#1E1D1E" opacity="1.000000" stroke="none" 
	d="
M82.214928,272.032043 
	C84.592751,272.053650 86.549622,272.053650 88.506493,272.053650 
	C88.533485,272.501678 88.560471,272.949738 88.587456,273.397766 
	C84.775017,273.397766 80.757301,274.073395 77.267052,273.012939 
	C76.122803,272.665283 76.173805,267.822235 75.995461,265.014801 
	C75.817329,262.210693 75.656067,259.299316 76.239143,256.597168 
	C76.538025,255.212082 78.386375,253.301422 79.695572,253.164108 
	C82.934875,252.824280 86.267021,253.369400 89.561859,253.558945 
	C89.617912,254.346725 89.673965,255.134491 89.730011,255.922272 
	C87.432602,256.289062 85.079773,256.459564 82.856094,257.087463 
	C81.208076,257.552826 79.727921,258.612671 78.172981,259.407684 
	C79.649429,260.263855 81.035767,261.423126 82.626183,261.896027 
	C84.428185,262.431793 86.413124,262.352356 88.318527,262.540436 
	C88.399590,263.119232 88.480652,263.698059 88.561714,264.276886 
	C86.861877,264.657745 85.075142,264.827240 83.487144,265.480133 
	C81.959785,266.108093 80.638062,267.236206 79.225983,268.144562 
	C80.081978,269.433197 80.937973,270.721802 82.214928,272.032043 
z"/>
<path fill="#C38EA6" opacity="1.000000" stroke="none" 
	d="
M395.050842,256.949524 
	C392.534576,257.046051 390.391022,257.061859 388.315033,257.444397 
	C387.927887,257.515747 387.375732,259.624695 387.642670,259.830750 
	C389.233917,261.058960 390.968781,262.168579 392.799896,262.999847 
	C394.694397,263.859894 396.753326,264.357605 400.027496,265.438904 
	C398.715363,268.417328 397.987793,272.970337 396.257172,273.390350 
	C392.705261,274.252411 388.593048,273.026642 384.770355,272.334900 
	C384.131104,272.219238 383.788300,270.465027 383.308502,269.467926 
	C384.331879,269.569183 385.362976,269.621552 386.377075,269.781494 
	C388.731659,270.152893 391.075745,270.823975 393.428955,270.845612 
	C394.266174,270.853302 395.117462,269.335052 395.962311,268.513367 
	C395.125519,267.675201 394.429718,266.528229 393.420593,266.067535 
	C391.687134,265.276184 389.426666,265.350281 387.992645,264.262909 
	C386.065186,262.801392 383.012177,259.802246 383.451904,258.843445 
	C384.504730,256.547852 387.112396,253.964508 389.470917,253.524063 
	C392.363525,252.983887 395.641632,254.508072 398.753082,255.139801 
	C398.672821,255.685471 398.592560,256.231140 398.512299,256.776825 
	C397.490479,256.849701 396.468658,256.922577 395.050842,256.949524 
z"/>
<path fill="#C8C3C6" opacity="1.000000" stroke="none" 
	d="
M247.512589,130.281601 
	C247.938339,153.400848 247.989807,176.731232 248.032776,200.989578 
	C247.939178,214.900650 247.854065,227.883759 247.768951,240.866852 
	C247.507980,239.947189 247.018677,239.027451 247.018982,238.107880 
	C247.030960,202.236145 247.087555,166.364441 247.512589,130.281601 
z"/>
<path fill="#C38EA6" opacity="1.000000" stroke="none" 
	d="
M452.465118,273.958679 
	C447.872681,273.985779 443.734039,273.985779 439.299225,273.985779 
	C439.299225,267.019318 439.299225,260.277588 439.299225,253.171753 
	C441.540375,252.710831 443.228271,252.573441 443.042358,255.963760 
	C442.842041,259.615753 443.249420,263.307861 442.948242,266.945740 
	C442.607147,271.065887 444.699524,272.109344 448.207214,272.050690 
	C449.857697,272.023041 451.511658,272.199982 453.164062,272.284210 
	C453.082336,272.833313 453.000610,273.382446 452.465118,273.958679 
z"/>
<path fill="#292425" opacity="1.000000" stroke="none" 
	d="
M248.130280,240.947479 
	C247.854065,227.883759 247.939178,214.900650 248.098816,201.453430 
	C248.528580,200.987473 248.883789,200.985626 249.559448,201.356415 
	C250.218750,203.104538 250.557602,204.480026 250.896439,205.855530 
	C250.927826,211.744492 251.012527,217.633804 250.974869,223.522324 
	C250.940506,228.893417 250.829971,234.266357 250.571686,239.629761 
	C250.547699,240.128098 249.216049,240.563477 248.130280,240.947479 
z"/>
<path fill="#716E6F" opacity="1.000000" stroke="none" 
	d="
M248.429535,361.087799 
	C248.380264,359.267944 248.331009,357.448090 248.095337,354.993652 
	C247.908951,354.359100 248.036316,353.968781 248.313110,353.660522 
	C248.667023,347.870209 248.744171,342.388184 248.845856,336.444153 
	C248.908340,322.905182 248.908524,309.827881 249.026260,296.751648 
	C249.043274,294.862000 249.624649,292.977386 249.944839,291.090454 
	C249.974899,320.071136 250.004959,349.051788 249.703766,378.204834 
	C249.058182,372.614075 248.743851,366.850952 248.429535,361.087799 
z"/>
<path fill="#BC7F9A" opacity="1.000000" stroke="none" 
	d="
M337.020966,273.837280 
	C328.573120,274.241089 325.241241,273.169342 324.378296,268.584747 
	C323.438660,263.592621 323.527771,258.406891 323.171997,253.357635 
	C328.104858,252.518356 327.940125,254.945145 328.020416,257.381165 
	C328.160950,261.645966 328.464966,265.905365 329.170593,270.762512 
	C332.100769,272.184448 334.560883,273.010864 337.020966,273.837280 
z"/>
<path fill="#C38EA6" opacity="1.000000" stroke="none" 
	d="
M268.825317,266.063049 
	C266.096497,262.021912 263.367676,257.980774 260.052338,253.071075 
	C267.059143,253.786057 266.784424,260.121338 270.931519,262.973724 
	C272.321960,260.549713 273.549316,257.987305 275.193420,255.728180 
	C275.976166,254.652679 277.552277,254.154556 278.769012,253.394897 
	C278.661713,254.587631 278.899994,255.966644 278.377625,256.935577 
	C277.163239,259.188171 275.582001,261.243042 273.707703,263.839722 
	C271.785797,264.888641 270.305573,265.475830 268.825317,266.063049 
z"/>
<path fill="#1E1D1E" opacity="1.000000" stroke="none" 
	d="
M117.064919,267.118164 
	C116.990929,267.866547 116.644753,269.051758 116.203209,269.088440 
	C114.243423,269.251190 112.256508,269.067505 110.278984,269.041016 
	C107.371338,269.002014 104.576508,269.061859 103.734169,272.808258 
	C103.609222,273.363953 102.291138,273.651367 101.525055,274.062897 
	C101.121895,273.813660 100.718735,273.564423 100.315575,273.315186 
	C102.412971,268.196625 104.510368,263.078033 106.607758,257.959473 
	C107.060852,258.017914 107.513939,258.076324 107.967026,258.134766 
	C107.967026,260.457184 107.967026,262.779602 107.967026,265.427032 
	C110.722557,265.928833 113.735687,266.477570 117.064919,267.118164 
z"/>
<path fill="#1E1D1E" opacity="1.000000" stroke="none" 
	d="
M59.073017,273.892395 
	C56.864468,273.919159 54.953392,274.255157 53.249931,273.805145 
	C51.897636,273.447968 49.803097,272.182953 49.751125,271.227783 
	C49.428131,265.291992 49.588463,259.329865 49.588463,253.376495 
	C50.094994,253.313019 50.601521,253.249557 51.108051,253.186096 
	C51.421772,254.273453 51.939545,255.348541 52.005775,256.450775 
	C52.134575,258.594513 51.994976,260.753540 51.993179,262.906219 
	C51.985538,272.079865 51.987854,272.056213 61.255524,271.573608 
	C62.027630,271.533417 62.831558,272.104279 63.513294,273.244934 
	C62.162220,273.450775 60.811142,273.656647 59.073017,273.892395 
z"/>
<path fill="#111011" opacity="1.000000" stroke="none" 
	d="
M174.002441,271.993896 
	C170.193436,274.982239 164.306488,274.831635 161.342773,271.101135 
	C162.021759,270.343262 162.564224,270.150818 163.106674,269.958344 
	C165.198242,272.865723 168.045746,272.132294 170.117203,270.569031 
	C171.628021,269.428864 172.735031,267.036713 172.969788,265.076691 
	C173.412872,261.377594 173.097748,257.587677 173.097748,253.419006 
	C176.572556,255.878159 176.881287,263.801483 174.153824,270.027222 
	C173.999603,271.127533 174.001022,271.560699 174.002441,271.993896 
z"/>
<path fill="#111011" opacity="1.000000" stroke="none" 
	d="
M140.645172,266.372314 
	C137.966934,265.357452 135.417770,264.857574 133.415512,263.531769 
	C132.419052,262.871948 132.425110,260.698120 131.925491,259.035583 
	C135.439697,260.635498 138.151978,261.970276 140.941422,263.117371 
	C145.385086,264.944733 147.387161,267.856537 145.471771,270.917664 
	C143.376511,274.266235 140.026596,274.602173 135.408707,272.555542 
	C139.523315,271.756958 144.204681,271.990417 140.645172,266.372314 
z"/>
<path fill="#BC7F9A" opacity="1.000000" stroke="none" 
	d="
M359.948944,253.971741 
	C363.745636,254.320358 368.102661,252.414047 370.929382,256.674591 
	C372.748352,259.416290 373.423187,262.320190 371.001373,264.957031 
	C368.804871,267.348480 366.277954,269.499115 362.346008,266.750793 
	C361.993927,265.902618 361.987244,265.512756 362.390198,265.074768 
	C366.108368,265.600983 368.328644,264.194244 368.810242,260.966125 
	C369.340485,257.411652 366.329834,257.027740 363.871735,256.467712 
	C362.638245,256.186676 361.327057,256.246643 360.033661,255.788773 
	C359.993835,254.940674 359.971375,254.456207 359.948944,253.971741 
z"/>
<path fill="#C8C3C6" opacity="1.000000" stroke="none" 
	d="
M248.036316,353.968781 
	C248.036316,353.968781 247.908951,354.359100 247.950684,354.560120 
	C247.658371,353.813416 247.034882,352.866394 247.032654,351.917908 
	C246.978546,328.961151 246.982803,306.004242 247.020447,283.047424 
	C247.021912,282.147186 247.456711,281.247650 247.866425,281.120850 
	C248.091522,300.249725 248.139771,318.605591 248.102539,337.424591 
	C248.023453,343.248108 248.029877,348.608429 248.036316,353.968781 
z"/>
<path fill="#C38EA6" opacity="1.000000" stroke="none" 
	d="
M337.379822,273.795227 
	C334.560883,273.010864 332.100769,272.184448 329.343506,271.120178 
	C336.461853,271.477448 338.484039,271.178131 338.019684,262.362640 
	C337.858887,259.309662 337.994110,256.241119 337.994110,252.748856 
	C342.584503,256.045288 341.991608,269.555298 337.379822,273.795227 
z"/>
<path fill="#BC7F9A" opacity="1.000000" stroke="none" 
	d="
M468.845123,257.747864 
	C468.790894,263.636444 469.964417,269.384583 466.763641,274.183624 
	C466.190277,274.100189 465.616882,274.016785 465.043518,273.933350 
	C465.043518,268.504547 464.983337,263.074371 465.107544,257.648407 
	C465.126434,256.822906 466.000031,256.016968 466.478271,255.201965 
	C467.234375,255.907867 467.990509,256.613770 468.845123,257.747864 
z"/>
<path fill="#CF9ABC" opacity="1.000000" stroke="none" 
	d="
M105.910507,228.529648 
	C105.552696,227.710602 105.038643,226.429993 105.035522,225.148117 
	C104.986893,205.159637 104.999336,185.171021 105.024429,165.182434 
	C105.025452,164.367188 105.289314,163.552277 105.627884,162.377167 
	C105.880692,184.033905 105.936325,206.050705 105.910507,228.529648 
z"/>
<path fill="#292425" opacity="1.000000" stroke="none" 
	d="
M248.188019,336.961426 
	C248.139771,318.605591 248.091522,300.249725 248.104599,281.426147 
	C248.779663,284.035187 249.393387,287.111969 249.975983,290.639587 
	C249.624649,292.977386 249.043274,294.862000 249.026260,296.751648 
	C248.908524,309.827881 248.908340,322.905182 248.687759,336.457733 
	C248.505127,336.933350 248.188019,336.961426 248.188019,336.961426 
z"/>
<path fill="#CF9ABC" opacity="1.000000" stroke="none" 
	d="
M211.919724,215.566010 
	C211.696594,215.701782 211.438507,215.420227 211.406372,215.114883 
	C210.271378,204.331665 209.157578,193.546204 208.061157,182.323517 
	C209.383621,185.731827 211.481873,189.510208 211.814758,193.438217 
	C212.423798,200.624664 211.989380,207.899567 211.919724,215.566010 
z"/>
<path fill="#141414" opacity="1.000000" stroke="none" 
	d="
M163.017548,269.561646 
	C162.564224,270.150818 162.021759,270.343262 161.264038,270.723511 
	C160.378204,270.302002 159.145660,269.710358 159.125870,269.080658 
	C158.967041,264.022888 159.037033,258.957947 159.037033,253.895218 
	C159.683197,253.826004 160.329376,253.756805 160.975540,253.687592 
	C161.626495,258.846710 162.277451,264.005798 163.017548,269.561646 
z"/>
<path fill="#1E1D1E" opacity="1.000000" stroke="none" 
	d="
M193.961517,256.989716 
	C193.933945,261.600250 194.024307,266.216797 193.791000,270.816895 
	C193.736649,271.888367 192.581833,272.903992 191.048218,273.478149 
	C191.048218,268.295166 191.048218,263.112152 191.239380,257.319244 
	C192.274200,256.802795 193.117844,256.896271 193.961517,256.989716 
z"/>
<path fill="#C38EA6" opacity="1.000000" stroke="none" 
	d="
M359.632050,253.891022 
	C359.971375,254.456207 359.993835,254.940674 359.846741,256.144775 
	C359.751526,259.810638 356.154907,263.780762 361.980530,265.122925 
	C361.987244,265.512756 361.993927,265.902618 361.990723,266.584778 
	C360.970032,268.321808 359.959229,269.766479 358.537872,271.407043 
	C357.754852,265.455536 357.382385,259.308105 357.009888,253.160645 
	C357.778320,253.377197 358.546722,253.593750 359.632050,253.891022 
z"/>
<path fill="#141414" opacity="1.000000" stroke="none" 
	d="
M194.289413,256.890625 
	C193.117844,256.896271 192.274200,256.802795 191.257721,256.854675 
	C190.741516,254.002472 192.218414,252.619965 195.058777,253.065781 
	C198.381180,253.587265 202.868546,251.867157 203.990463,257.607910 
	C204.000000,258.000000 204.010849,257.989014 204.010849,257.989014 
	C200.879669,257.589844 197.748505,257.190674 194.289413,256.890625 
z"/>
<path fill="#1E1D1E" opacity="1.000000" stroke="none" 
	d="
M357.630432,338.994751 
	C349.851501,339.014771 342.519104,339.043121 335.186737,339.047394 
	C334.022736,339.048096 332.791351,339.153137 331.717010,338.812622 
	C330.925903,338.561859 330.234467,337.735535 329.735229,337.004120 
	C329.606567,336.815613 330.282135,335.703430 330.743958,335.574890 
	C331.426880,335.384796 332.288361,335.576385 333.004242,335.814514 
	C335.003754,336.479614 336.949646,337.818939 338.948578,337.882050 
	C346.732605,338.127777 354.528992,337.982208 362.334717,338.774536 
	C360.915497,338.848053 359.496246,338.921600 357.630432,338.994751 
z"/>
<path fill="#BC7F9A" opacity="1.000000" stroke="none" 
	d="
M356.618164,253.256683 
	C357.382385,259.308105 357.754852,265.455536 358.459290,271.781677 
	C357.941803,272.815857 357.092316,273.671356 356.242828,274.526855 
	C355.665100,274.250854 355.087341,273.974823 354.509583,273.698792 
	C355.081879,266.916748 355.654175,260.134735 356.618164,253.256683 
z"/>
<path fill="#433F40" opacity="1.000000" stroke="none" 
	d="
M248.054489,361.302063 
	C248.743851,366.850952 249.058182,372.614075 249.668884,378.670044 
	C249.444931,379.915222 248.924606,380.867615 248.404266,381.820007 
	C247.838440,381.681549 247.272614,381.543060 246.706787,381.404602 
	C247.031021,374.775177 247.355240,368.145752 248.054489,361.302063 
z"/>
<path fill="#111011" opacity="1.000000" stroke="none" 
	d="
M140.638367,253.058929 
	C142.494537,253.826309 143.953079,254.573044 145.411621,255.319778 
	C145.262650,255.806793 145.113663,256.293823 144.964676,256.780823 
	C141.183624,256.592987 137.402557,256.405182 133.621506,256.217346 
	C133.566742,255.575943 133.511978,254.934540 133.457199,254.293137 
	C135.718384,253.874847 137.979553,253.456558 140.638367,253.058929 
z"/>
<path fill="#CF9ABC" opacity="1.000000" stroke="none" 
	d="
M268.897522,266.503204 
	C270.305573,265.475830 271.785797,264.888641 273.577484,264.165588 
	C272.727081,267.416229 272.057007,271.031891 271.064514,274.497314 
	C270.366241,274.237457 269.667999,273.977600 268.969757,273.717712 
	C268.969757,271.459595 268.969757,269.201477 268.897522,266.503204 
z"/>
<path fill="#716E6F" opacity="1.000000" stroke="none" 
	d="
M250.961761,205.400314 
	C250.557602,204.480026 250.218750,203.104538 249.825867,201.352875 
	C249.934998,192.506119 250.098190,184.035522 250.608276,175.324554 
	C250.979111,185.037811 251.003098,194.991455 250.961761,205.400314 
z"/>
<path fill="#CF9ABC" opacity="1.000000" stroke="none" 
	d="
M204.856628,174.669678 
	C202.927307,172.898819 200.995575,170.777771 199.052826,168.289612 
	C200.979279,170.054840 202.916748,172.187164 204.856628,174.669678 
z"/>
<path fill="#141414" opacity="1.000000" stroke="none" 
	d="
M203.994507,258.005310 
	C207.539505,258.203094 207.266403,260.106171 205.142273,262.728760 
	C204.764282,261.411316 204.386276,260.093872 204.009552,258.382721 
	C204.010849,257.989014 204.000000,258.000000 203.994507,258.005310 
z"/>
<path fill="#CF9ABC" opacity="1.000000" stroke="none" 
	d="
M105.526108,151.095444 
	C101.564995,151.295319 97.145134,151.423386 92.372299,151.349945 
	C96.368675,151.106842 100.718025,151.065247 105.526108,151.095444 
z"/>
<path fill="#CF9ABC" opacity="1.000000" stroke="none" 
	d="
M208.071564,181.549133 
	C207.092926,180.506119 206.060287,179.090912 205.027679,177.291885 
	C206.024307,178.331024 207.020935,179.753998 208.071564,181.549133 
z"/>
<path fill="#1E1D1E" opacity="1.000000" stroke="none" 
	d="
M196.384140,266.078552 
	C195.944122,266.388214 195.525406,266.478180 195.106689,266.568115 
	C195.128922,266.287231 195.151169,266.006378 195.173416,265.725494 
	C195.584091,265.769958 195.994766,265.814423 196.384140,266.078552 
z"/>
<path fill="#CF9ABC" opacity="1.000000" stroke="none" 
	d="
M105.894547,158.677063 
	C105.749268,158.382645 105.676941,157.769257 105.855988,157.107330 
	C106.060745,157.491898 106.014114,157.925003 105.894547,158.677063 
z"/>
<path fill="#141414" opacity="1.000000" stroke="none" 
	d="
M174.174042,271.828674 
	C174.001022,271.560699 173.999603,271.127533 173.996140,270.370239 
	C174.111282,270.585266 174.228470,271.124359 174.174042,271.828674 
z"/>
<path fill="#CF9ABC" opacity="1.000000" stroke="none" 
	d="
M183.894653,170.332581 
	C184.073395,170.292679 184.353043,170.521484 184.785965,170.973572 
	C184.624695,170.998337 184.310120,170.799835 183.894653,170.332581 
z"/>
<path fill="#CF9ABC" opacity="1.000000" stroke="none" 
	d="
M182.918884,169.326477 
	C183.107803,169.287018 183.374451,169.521912 183.786774,169.983170 
	C183.620514,170.006638 183.308563,169.803741 182.918884,169.326477 
z"/>
<path fill="#000000" opacity="1.000000" stroke="none" 
	d="
M298.036865,257.037903 
	C302.549591,255.901688 306.737396,257.953094 307.818451,261.617157 
	C308.684174,264.551392 306.287567,269.638580 303.489685,270.805695 
	C300.059692,272.236481 295.414429,270.593567 293.905212,267.415894 
	C291.828644,263.043732 293.090240,259.546143 298.036865,257.037903 
z"/>
<path fill="#000000" opacity="1.000000" stroke="none" 
	d="
M25.226807,256.295593 
	C26.269592,256.257202 27.108669,256.080109 27.556250,256.419434 
	C29.348011,257.777893 31.018276,259.296631 32.733471,260.756073 
	C30.905497,262.145233 29.176062,263.704498 27.204952,264.846619 
	C26.316572,265.361389 24.946346,265.044617 22.280218,265.184723 
	C23.248430,261.863922 24.045801,259.129089 25.226807,256.295593 
z"/>
<path fill="#433F40" opacity="1.000000" stroke="none" 
	d="
M248.102524,337.424591 
	C248.188019,336.961426 248.505127,336.933350 248.663208,336.919739 
	C248.744171,342.388184 248.667023,347.870209 248.313095,353.660522 
	C248.029877,348.608429 248.023453,343.248108 248.102524,337.424591 
z"/>
<path fill="#000000" opacity="1.000000" stroke="none" 
	d="
M362.390167,265.074768 
	C356.154907,263.780762 359.751526,259.810638 359.864075,256.508392 
	C361.327057,256.246643 362.638245,256.186676 363.871735,256.467712 
	C366.329834,257.027740 369.340485,257.411652 368.810242,260.966125 
	C368.328644,264.194244 366.108368,265.600983 362.390167,265.074768 
z"/>
</svg>